<!DOCTYPE svg PUBLIC "-//W3C//DTD SVG 1.1//EN" "http://www.w3.org/Graphics/SVG/1.1/DTD/svg11.dtd">

<!-- Uploaded to: SVG Repo, www.svgrepo.com, Transformed by: SVG Repo Mixer Tools -->
<svg width="800px" height="800px" viewBox="0 0 1024 1024" class="icon" version="1.1"
    xmlns="http://www.w3.org/2000/svg" fill="#000000">

    <g id="SVGRepo_bgCarrier" stroke-width="0" />

    <g id="SVGRepo_tracerCarrier" stroke-linecap="round" stroke-linejoin="round" />

    <g id="SVGRepo_iconCarrier">

        <path
            d="M913.29536 941.04064c0.0256 24.82688-16.54784 44.96384-37.0176 44.98432l-708.23936 0.6912c-20.46464 0.02048-37.07904-20.08576-37.10464-44.91264l-0.83968-859.02848c-0.0256-24.82688 16.54784-44.96384 37.0176-44.98432l521.10848-0.50688 224.39424 210.50368 0.68096 693.25312z"
            fill="#55aeb4" />

        <path
            d="M913.29536 253.26592l-189.11744 0.18432c-20.46464 0.02048-37.07904-20.08576-37.10464-44.91264l-0.16384-165.77024 226.38592 210.49856z"
            fill="#ffffff" />

        <path
            d="M720.72192 396.84096a22.54848 22.54848 0 0 1-22.54848 22.54848H326.13376a22.54848 22.54848 0 0 1 0-45.09696h372.0448a22.54848 22.54848 0 0 1 22.54336 22.54848zM720.72192 565.95456a22.54848 22.54848 0 0 1-22.54848 22.54848H326.13376a22.54848 22.54848 0 0 1 0-45.09696h372.0448a22.54848 22.54848 0 0 1 22.54336 22.54848zM720.72192 746.33728a22.54848 22.54848 0 0 1-22.54848 22.54848H326.13376a22.54848 22.54848 0 0 1 0-45.09696h372.0448a22.54848 22.54848 0 0 1 22.54336 22.54848z"
            fill="#ffffff" />

    </g>

</svg>