<?xml version="1.0" encoding="UTF-8"?><svg id="_イヤー_1" xmlns="http://www.w3.org/2000/svg" viewBox="0 0 100 100"><defs><style>.cls-1{fill:#d4b249;}.cls-2{fill:#52a7ac;}</style></defs><path class="cls-2" d="M95.95,45.46c.48,0,.87-.39,.87-.87v-10.9c0-1.64-1.33-2.96-2.96-2.96H51.87c-1.64,0-2.96-1.33-2.96-2.96V14.57c0-2.46-2.81-3.85-4.76-2.37L3.39,43.09c-.76,.57-1.13,1.4-1.16,2.24,0,.03-.01,.06-.01,.09h0s0,.02,0,.03H95.95Z"/><path class="cls-1" d="M5.19,69.05H47.16c1.64,0,2.96,1.33,2.96,2.96v13.19c0,.46,.12,.86,.29,1.23h0c.75,1.63,2.88,2.35,4.47,1.14l40.76-30.89c.76-.57,1.13-1.4,1.16-2.25,0-.03,.01-.06,.01-.09h0s0-.02,0-.03H3.09c-.48,0-.87,.39-.87,.87v10.9c0,1.64,1.33,2.96,2.96,2.96Z"/></svg>