<?xml version="1.0" encoding="UTF-8"?>
<svg id="_イヤー_1" xmlns="http://www.w3.org/2000/svg" viewBox="0 0 100 100">
    <defs>
        <style>.cls-1{fill:#55aeb4;}</style>
    </defs>
    <path class="cls-1"
        d="M78.27,50.28l13.69-31.8c1.61-3.74,1.25-8.03-.97-11.47-2.13-3.3-5.7-5.3-9.57-5.37h-.21c-2.13,0-4.24,.57-6.11,1.65L12.06,39.68c-3.83,2.21-6.12,6.18-6.12,10.6s2.29,8.39,6.12,10.6l63.04,36.4c1.87,1.08,3.98,1.65,6.11,1.65h.21c3.86-.07,7.44-2.08,9.57-5.37,2.22-3.44,2.59-7.73,.97-11.47l-13.69-31.8Zm2.23,37.64L17.47,51.51c-.59-.34-.72-.86-.72-1.24s.12-.9,.71-1.24L80.51,12.64c.24-.14,.46-.2,.73-.2h0c.11,0,.4,0,.67,.43,.1,.15,.4,.7,.13,1.33l-15.53,36.08,15.53,36.08c.27,.63-.03,1.18-.13,1.33-.27,.42-.56,.43-.67,.43l-.02,5.41v-5.41c-.24,0-.47-.07-.7-.2Z" />
</svg>