<?xml version="1.0" encoding="UTF-8"?>
<svg id="_イヤー_1" xmlns="http://www.w3.org/2000/svg" viewBox="0 0 100 100">
    <defs>
        <style>.cls-1{fill:#dbb748;}.cls-2{fill:#52a7ac;}</style>
    </defs>
    <path class="cls-1"
        d="M49.32,39.97c-5.83,0-10.57,4.74-10.57,10.57s4.74,10.57,10.57,10.57,10.57-4.74,10.57-10.57-4.74-10.57-10.57-10.57Z" />
    <path class="cls-2"
        d="M94.67,40.23l-8.13-.5c-1.42-.1-2.64-.99-3.13-2.31-1.39-3.58-3.31-6.89-5.7-9.82-.87-1.09-1.04-2.59-.42-3.86l3.63-7.29c.87-1.72,.25-3.81-1.42-4.75l-11.64-6.72c-1.64-.97-3.76-.47-4.82,1.12l-4.5,6.81c-.77,1.17-2.16,1.79-3.56,1.57-1.84-.3-3.73-.45-5.67-.45s-3.81,.15-5.67,.45c-1.39,.22-2.78-.4-3.56-1.57l-4.5-6.81c-1.04-1.59-3.16-2.09-4.8-1.12l-11.66,6.72c-1.64,.95-2.26,3.03-1.42,4.75l3.63,7.29c.65,1.27,.47,2.76-.42,3.86-2.36,2.94-4.3,6.24-5.67,9.82-.5,1.32-1.74,2.21-3.13,2.31l-8.13,.5c-1.89,.1-3.38,1.69-3.38,3.61v13.43c0,1.91,1.49,3.48,3.38,3.61l8.13,.5c1.39,.1,2.64,.99,3.13,2.29,1.37,3.58,3.31,6.89,5.67,9.82,.9,1.09,1.07,2.61,.42,3.88l-3.63,7.29c-.85,1.72-.22,3.78,1.42,4.75l11.66,6.72c1.64,.95,3.76,.45,4.8-1.14l4.5-6.79c.77-1.17,2.16-1.79,3.56-1.57,1.87,.3,3.76,.45,5.67,.45s3.83-.15,5.67-.45c1.39-.22,2.78,.4,3.56,1.57l4.5,6.79c1.07,1.59,3.18,2.09,4.82,1.14l11.64-6.72c1.67-.97,2.29-3.03,1.42-4.75l-3.63-7.29c-.62-1.27-.45-2.79,.42-3.88,2.39-2.93,4.3-6.24,5.7-9.82,.5-1.29,1.72-2.19,3.13-2.29l8.13-.5c1.89-.12,3.38-1.69,3.38-3.61v-13.43c0-1.92-1.49-3.51-3.38-3.61Zm-23.35,10.32c0,12.14-9.85,21.99-22.01,21.99s-21.99-9.85-21.99-21.99,9.85-21.99,21.99-21.99c12.16,0,22.01,9.85,22.01,21.99Z" />
</svg>