<?xml version="1.0" encoding="UTF-8"?><svg id="_イヤー_1" xmlns="http://www.w3.org/2000/svg" viewBox="0 0 100 100"><defs><style>.cls-1{fill:#fff;}.cls-2{fill:#cdad4b;}.cls-3{fill:#52a7ac;}</style></defs><path class="cls-3" d="M77.03,39.25C76.95,.22,1.79,.22,1.71,39.25c.02,9.35,4.35,16.46,10.92,21.33l1.04,19.28,16.75-12.09c21.26,3.62,46.55-5.89,46.6-28.52ZM31.26,62.67l-13.99,10.09-.87-16.13c-5.45-4.03-9.03-9.87-9.04-17.52,.05-32.33,63.79-32.33,63.84,0-.03,18.9-21.82,26.75-39.93,23.56Z"/><path class="cls-1" d="M7.36,39.11c.01,7.65,3.59,13.49,9.04,17.52l.87,16.13,13.99-10.09c18.11,3.2,39.9-4.65,39.93-23.56-.05-32.33-63.78-32.34-63.84,0Z"/><path class="cls-2" d="M95.78,41.5c-3.36-6.55-8.29-10.16-16.77-12.78,9.06,27.67-13.85,42.66-38.18,44.5,7.13,6.75,18.63,8.56,29.52,6.55l18.78,13.24c.28-5.49,.8-16.46,1.06-22.32,7.97-6.9,11.65-17.04,5.58-29.19Z"/></svg>