<?xml version="1.0" encoding="utf-8"?>
<!-- Generator: Adobe Illustrator 26.3.1, SVG Export Plug-In . SVG Version: 6.00 Build 0)  -->
<svg version="1.1" id="レイヤー_1" xmlns="http://www.w3.org/2000/svg"
	xmlns:xlink="http://www.w3.org/1999/xlink" x="0px"
	y="0px" viewBox="0 0 100 100" style="enable-background:new 0 0 100 100;" xml:space="preserve">
<style type="text/css">
	.st0{fill:#55AEB4;}
	.st1{fill:#EBC343;}
	.st2{fill:#DBB748;}
	.st3{fill:#55AEB4;stroke:#52A7AC;stroke-width:4.5;stroke-miterlimit:10;}
	.st4{fill:#E3BD46;}
	.st5{fill:#9E9E9E;}
	.st6{fill:none;stroke:#FFFFFF;stroke-width:8.1764;stroke-miterlimit:10;}
	.st7{fill:none;stroke:#51A0A5;stroke-width:7.5;stroke-miterlimit:10;}
	.st8{fill:#52A7AC;}
	.st9{fill:#D4B249;}
	.st10{fill:#509A9F;}
	.st11{fill:#CDAD4B;}
	.st12{fill:#4F9499;}
	.st13{fill:#FFFFFF;}
	.st14{fill:#1AA9A8;}
	.st15{opacity:0.57;}
	.st16{fill:#22A1A0;}
	.st17{fill:#D8AE49;}
	.st18{fill:#E2E2E1;}
	.st19{fill:#57B6BD;}
</style>
<g>
	<path class="st16" d="M96.8,26.6L82.7,12.4l-8.9-8.8c-0.5-0.5-1.2-0.5-1.7,0L12.5,63.2c-0.1,0.1-0.2,0.2-0.3,0.3l-1.3,1.3
		c-0.7,0.7-1.3,1.6-1.6,2.6L3.2,88.2c-0.8,2.5-0.1,5.3,1.8,7.2c1.8,1.8,4.6,2.6,7.1,1.8l20.8-6.1c1-0.3,1.9-0.9,2.7-1.6l61.3-61.3
		C97.3,27.8,97.3,27.1,96.8,26.6z M8.6,90.2l1-3.3l1.4,1.4l0.5,0.5l-1.8,0.8L8.6,90.2z M22.2,72.3l0.6,0l-0.1,1.1l-0.3,4.1l0,0.5h0
		l0,0l4.7-0.3l0.9-0.1l0.1,0l-0.1,1l-0.3,4.2l0,0.5h0l0,0l4.7-0.3l0.6,0l0.4,0l-0.6,0.6l-1.7,1.7l-15.4,4.4l-5.2-5.1l4.5-15.3
		l1.7-1.7l0,0l0.7-0.7l-0.2,5.2l0,0.5h0l0,0L22.2,72.3z M30.9,80.2l0.4-5.7l-5.1,0.3l-0.6,0l0.3-5l0-0.6h0l0,0l-2.2,0.1l-0.9,0.1h0
		l-2.3,0.1l-0.3,0l0.4-5.7v0l14.1-14.1L73,11.5l3.9,3.9l1.5,1.5l0,0l10.6,10.6l0,0L50.7,65.7L36.6,79.8l-5.1,0.3L30.9,80.2z"/>
	<polygon class="st4" points="75.9,20 75.9,20 76,19.9 74.9,18.9 28.5,65.3 29.5,66.4 75.8,20.1 	"/>
	<rect x="25" y="47.5" transform="matrix(0.7071 -0.7071 0.7071 0.7071 -17.1638 54.9958)" class="st4" width="65.7" height="1.5"/>
</g>
</svg>